<svg xmlns="http://www.w3.org/2000/svg" width="351" height="285" viewBox="0 0 351 285">
  <g id="Polygon_1" data-name="Polygon 1" fill="none" stroke-dasharray="5 10" opacity="0.289">
    <path d="M175.5,0,351,285H0Z" stroke="none"/>
    <path d="M 183.3652038574219 12.77255249023438 L 185.9869537353516 17.03009033203125 L 184.2839508056641 18.07876586914062 L 181.6621856689453 13.82125854492188 L 183.365234375 12.77255249023438 Z M 191.2304077148438 25.54513549804688 C 191.2304077148438 25.54513549804688 191.6617736816406 26.24563598632812 192.1744842529297 27.07821655273438 L 192.1797332763672 27.08676147460938 C 192.1804351806641 27.087890625 192.1811065673828 27.0889892578125 192.1818084716797 27.09011840820312 L 193.8521575927734 29.80265808105469 L 192.1491394042969 30.85136413574219 L 189.5274047851562 26.59381103515625 L 191.2304077148438 25.54513549804688 Z M 199.0956268310547 38.31768798828125 L 200.1959075927734 40.10447692871094 C 200.19970703125 40.11064147949219 200.2035369873047 40.11685180664062 200.2073364257812 40.12301635742188 L 200.207763671875 40.12371826171875 C 200.2113342285156 40.12950134277344 200.2147369384766 40.13504028320312 200.2183074951172 40.14083862304688 L 200.2254943847656 40.15252685546875 C 200.2295532226562 40.15908813476562 200.2335510253906 40.16560363769531 200.2376098632812 40.17218017578125 L 200.2386779785156 40.17391967773438 C 200.2431335449219 40.18115234375 200.2474365234375 40.18815612792969 200.2518920898438 40.19538879394531 L 200.2544708251953 40.19955444335938 C 200.2639312744141 40.21492004394531 200.2734527587891 40.23037719726562 200.2829284667969 40.24578857421875 L 200.2846527099609 40.24858093261719 C 200.9780578613281 41.37461853027344 201.7173614501953 42.57522583007812 201.7173614501953 42.57522583007812 L 200.0143585205078 43.62391662597656 L 197.3926391601562 39.36640930175781 L 199.0956420898438 38.31768798828125 Z M 206.9608612060547 51.09027099609375 L 209.5825805664062 55.3477783203125 L 207.8795928955078 56.39649963378906 L 205.2578125 52.13896179199219 L 206.9608612060547 51.09027099609375 Z M 214.8260498046875 63.86282348632812 C 214.8260498046875 63.86282348632812 215.1787567138672 64.43559265136719 215.6253967285156 65.16090393066406 L 215.6285552978516 65.16603088378906 C 215.6303405761719 65.16893005371094 215.6321258544922 65.17182922363281 215.6339111328125 65.17472839355469 L 215.6345672607422 65.17578125 C 215.6358337402344 65.17784118652344 215.6370086669922 65.17974853515625 215.6382751464844 65.18180847167969 L 217.4477996826172 68.12037658691406 L 215.7447662353516 69.16905212402344 L 213.123046875 64.91154479980469 L 214.8260498046875 63.86282348632812 Z M 222.6912689208984 76.63540649414062 C 222.6912689208984 76.63540649414062 225.3130035400391 80.89291381835938 225.3130035400391 80.89291381835938 L 223.6100006103516 81.94158935546875 L 220.9882659912109 77.68409729003906 L 222.6912689208984 76.63540649414062 Z M 230.5564880371094 89.407958984375 L 232.9044036865234 93.2208251953125 C 232.9049682617188 93.22174072265625 232.9055480957031 93.22270202636719 232.9061279296875 93.22361755371094 L 232.9084167480469 93.22735595703125 C 232.9106750488281 93.23100280761719 232.9129943847656 93.23477172851562 232.9152221679688 93.23838806152344 L 232.9191589355469 93.24479675292969 C 232.9201049804688 93.246337890625 232.9211120605469 93.24797058105469 232.9220733642578 93.24951171875 L 232.9220733642578 93.24951171875 C 232.9229736328125 93.2509765625 232.9238433837891 93.25239562988281 232.9247436523438 93.25384521484375 L 232.9384155273438 93.27606201171875 C 232.9406433105469 93.27969360351562 232.94287109375 93.28330993652344 232.9450836181641 93.28689575195312 L 232.9460754394531 93.28851318359375 C 232.9489593505859 93.29318237304688 232.9518127441406 93.29782104492188 232.9546508789062 93.30241394042969 L 232.9547119140625 93.30253601074219 C 233.0935974121094 93.52806091308594 233.17822265625 93.66549682617188 233.17822265625 93.66549682617188 L 231.4752197265625 94.71418762207031 L 228.8534545898438 90.45663452148438 L 230.5565032958984 89.407958984375 Z M 238.4216918945312 102.1805419921875 C 238.4216918945312 102.1805419921875 241.0434112548828 106.4380493164062 241.0434112548828 106.4380493164062 L 239.3404083251953 107.4867248535156 L 236.7186889648438 103.2292327880859 L 238.4216918945312 102.1805419921875 Z M 246.2868957519531 114.9530944824219 L 246.8064727783203 115.7968444824219 C 246.8092803955078 115.8014068603516 246.8120574951172 115.805908203125 246.8148803710938 115.8105010986328 L 246.81884765625 115.8169250488281 C 246.826416015625 115.8292236328125 246.8340911865234 115.8416900634766 246.8417663574219 115.8541564941406 L 246.843994140625 115.8577728271484 C 246.8607788085938 115.8850250244141 246.8776245117188 115.9123840332031 246.8948822021484 115.9403991699219 L 246.8950500488281 115.940673828125 C 247.6695251464844 117.1983947753906 248.9086303710938 119.2106323242188 248.9086303710938 119.2106323242188 L 247.2056274414062 120.2593231201172 L 244.5839080810547 116.0017700195312 L 246.2869110107422 114.9530944824219 Z M 254.1521301269531 127.7256774902344 L 256.7738647460938 131.9831848144531 L 255.0708618164062 133.0318603515625 L 252.4490966796875 128.7743682861328 L 254.1521301269531 127.7256774902344 Z M 262.017333984375 140.4982299804688 C 262.017333984375 140.4982299804688 264.6390380859375 144.7557220458984 264.6390380859375 144.7557220458984 L 262.93603515625 145.8044586181641 L 260.3143310546875 141.5469055175781 L 262.017333984375 140.4982299804688 Z M 269.8825378417969 153.2707824707031 L 271.7016906738281 156.2249603271484 C 272.14990234375 156.9528350830078 272.5042724609375 157.5283203125 272.5042724609375 157.5283203125 L 270.80126953125 158.5769958496094 L 268.1795349121094 154.3195037841797 L 269.8825378417969 153.2707672119141 Z M 277.7477416992188 166.0433654785156 L 280.3694763183594 170.3008728027344 L 278.66650390625 171.3495941162109 L 276.0447387695312 167.092041015625 L 277.7477722167969 166.0433654785156 Z M 285.6129455566406 178.81591796875 L 285.6129760742188 178.8159484863281 C 285.61328125 178.81640625 285.6158447265625 178.8206176757812 285.62060546875 178.828369140625 L 285.6210021972656 178.8289794921875 C 285.7798461914062 179.0869140625 288.2346801757812 183.0734558105469 288.2346801757812 183.0734558105469 L 286.5316772460938 184.1221313476562 L 283.9099731445312 179.8646392822266 L 285.6129455566406 178.81591796875 Z M 293.4781799316406 191.5885009765625 L 293.4790344238281 191.5898895263672 C 293.4790649414062 191.5899353027344 293.4790954589844 191.5899658203125 293.4791259765625 191.5900115966797 L 293.4793395996094 191.5903930664062 C 293.4795532226562 191.5906982421875 293.4797668457031 191.591064453125 293.47998046875 191.5914306640625 L 293.4802551269531 191.5918731689453 C 293.4802856445312 191.5919494628906 293.4803466796875 191.5920257568359 293.4804077148438 191.5921020507812 L 293.4808349609375 191.5928344726562 C 293.4808349609375 191.5928344726562 293.4808654785156 191.5928649902344 293.4808654785156 191.5928649902344 L 293.4826965332031 191.5958557128906 C 293.48291015625 191.5962066650391 293.483154296875 191.5965576171875 293.4833679199219 191.596923828125 L 293.4842529296875 191.5983581542969 C 293.484375 191.5985412597656 293.4844970703125 191.5987243652344 293.484619140625 191.5989379882812 L 293.4911193847656 191.6095275878906 C 293.4913635253906 191.6099090576172 293.4916076660156 191.6103210449219 293.4918518066406 191.6107177734375 L 293.5851440429688 191.7622222900391 C 293.5856018066406 191.762939453125 293.5859985351562 191.7636108398438 293.5864562988281 191.7643280029297 L 293.6283569335938 191.8323669433594 C 293.6285400390625 191.8326721191406 293.6286926269531 191.8329315185547 293.62890625 191.833251953125 L 296.0999145507812 195.8460083007812 L 294.3969116210938 196.8947296142578 L 291.7751770019531 192.6371765136719 L 293.4781799316406 191.5885009765625 Z M 301.3433837890625 204.3610534667969 L 303.9651489257812 208.6185913085938 L 302.2621459960938 209.6672668457031 L 299.6403503417969 205.4097747802734 L 301.3434143066406 204.3610534667969 Z M 309.2085876464844 217.1336364746094 C 309.2085876464844 217.1336364746094 311.830322265625 221.3911437988281 311.830322265625 221.3911437988281 L 310.1273193359375 222.4398193359375 L 307.5055847167969 218.1823120117188 L 309.2085876464844 217.1336364746094 Z M 317.0738220214844 229.9061889648438 L 318.2796630859375 231.8643798828125 C 318.28173828125 231.8677520751953 318.2839050292969 231.8713073730469 318.2859802246094 231.8746795654297 L 318.2947998046875 231.8889617919922 C 318.9787902832031 232.9997406005859 319.695556640625 234.1637268066406 319.695556640625 234.1637268066406 L 317.9925537109375 235.21240234375 L 315.3708190917969 230.9548645019531 L 317.0738220214844 229.9061889648438 Z M 324.9390258789062 242.6787719726562 L 327.5607604980469 246.936279296875 L 325.8577880859375 247.9849548339844 L 323.2359924316406 243.7274475097656 L 324.9390563964844 242.6787719726562 Z M 332.8042297363281 255.4513244628906 C 332.8042297363281 255.4513244628906 335.4259643554688 259.7088623046875 335.4259643554688 259.7088623046875 L 333.7229614257812 260.7575378417969 L 331.1012268066406 256.5 L 332.8042297363281 255.4513244628906 Z M 340.6694641113281 268.2239074707031 C 340.6694641113281 268.2239074707031 343.2911682128906 272.4814147949219 343.2911682128906 272.4814147949219 L 341.5881958007812 273.5300903320312 L 338.9664611816406 269.2725830078125 L 340.6694641113281 268.2239074707031 Z M 348.5346374511719 280.9964599609375 C 348.5346374511719 280.9964599609375 350.0455322265625 283.4500122070312 350.7017211914062 284.515625 L 350.7017211914062 284.515625 L 351 285 C 351 285 351 285 351 285 C 351 285 351 285 351 285 L 351 285 C 351 285 351 285 351 285 L 348.6512145996094 285 L 346.8316345214844 282.0451354980469 L 348.5346374511719 280.9964599609375 Z M 335.7017211914062 283 L 340.7017211914062 283 L 340.7017211914062 285 C 340.7017211914062 285 335.7017211914062 285 335.7017211914062 285 L 335.7017211914062 283 Z M 320.7017211914062 283 L 325.7017211914062 283 L 325.7017211914062 285 C 325.7017211914062 285 320.7017211914062 285 320.7017211914062 285 L 320.7017211914062 283 Z M 305.7017211914062 283 L 310.7017211914062 283 L 310.7017211914062 285 C 310.7017211914062 285 305.7017211914062 285 305.7017211914062 285 L 305.7017211914062 283 Z M 290.7017211914062 283 L 295.7017211914062 283 L 295.7017211914062 285 C 295.7017211914062 285 290.7017211914062 285 290.7017211914062 285 L 290.7017211914062 283 Z M 275.7017211914062 283 L 280.7017211914062 283 L 280.7017211914062 285 C 280.7017211914062 285 275.7017211914062 285 275.7017211914062 285 L 275.7017211914062 283 Z M 260.7017211914062 283 L 265.7017211914062 283 L 265.7017211914062 285 C 265.7017211914062 285 260.7017211914062 285 260.7017211914062 285 L 260.7017211914062 283 Z M 245.7017211914062 283 L 250.7017211914062 283 L 250.7017211914062 285 C 250.7017211914062 285 245.7017211914062 285 245.7017211914062 285 L 245.7017211914062 283 Z M 230.7017211914062 283 L 235.7017211914062 283 L 235.7017211914062 285 C 235.7017211914062 285 230.7017211914062 285 230.7017211914062 285 L 230.7017211914062 283 Z M 215.7017211914062 283 L 220.7017211914062 283 L 220.7017211914062 285 C 220.7017211914062 285 215.7017211914062 285 215.7017211914062 285 L 215.7017211914062 283 Z M 200.7017211914062 283 L 205.7017211914062 283 L 205.7017211914062 285 C 205.7017211914062 285 200.7017211914062 285 200.7017211914062 285 L 200.7017211914062 283 Z M 185.7017211914062 283 L 190.7017211914062 283 L 190.7017211914062 285 C 190.7017211914062 285 185.7017211914062 285 185.7017211914062 285 L 185.7017211914062 283 Z M 170.7017211914062 283 L 175.7017211914062 283 L 175.7017211914062 285 C 175.7017211914062 285 170.7017211914062 285 170.7017211914062 285 L 170.7017211914062 283 Z M 155.7017211914062 283 L 160.7017211914062 283 L 160.7017211914062 285 C 160.7017211914062 285 155.7017211914062 285 155.7017211914062 285 L 155.7017211914062 283 Z M 140.7017211914062 283 L 145.7017211914062 283 L 145.7017211914062 285 C 145.7017211914062 285 140.7017211914062 285 140.7017211914062 285 L 140.7017211914062 283 Z M 125.7017211914062 283 L 130.7017211914062 283 L 130.7017211914062 285 C 130.7017211914062 285 125.7017211914062 285 125.7017211914062 285 L 125.7017211914062 283 Z M 110.7017211914062 283 L 115.7017211914062 283 L 115.7017211914062 285 C 115.7017211914062 285 110.7017211914062 285 110.7017211914062 285 L 110.7017211914062 283 Z M 95.70172119140625 283 L 100.7017211914062 283 L 100.7017211914062 285 C 100.7017211914062 285 95.70172119140625 285 95.70172119140625 285 L 95.70172119140625 283 Z M 80.70172119140625 283 L 85.70172119140625 283 L 85.70172119140625 285 C 85.70172119140625 285 80.70172119140625 285 80.70172119140625 285 L 80.70172119140625 283 Z M 65.70172119140625 283 L 70.70172119140625 283 L 70.70172119140625 285 C 70.70172119140625 285 65.70172119140625 285 65.70172119140625 285 L 65.70172119140625 283 Z M 50.70172119140625 283 L 55.70172119140625 283 L 55.70172119140625 285 C 55.70172119140625 285 50.70172119140625 285 50.70172119140625 285 L 50.70172119140625 283 Z M 35.70172119140625 283 L 40.70172119140625 283 L 40.70172119140625 285 C 40.70172119140625 285 35.70172119140625 285 35.70172119140625 285 L 35.70172119140625 283 Z M 20.70172119140625 283 L 25.70172119140625 283 L 25.70172119140625 285 C 25.70172119140625 285 20.70172119140625 285 20.70172119140625 285 L 20.70172119140625 283 Z M 5.70172119140625 283 L 10.70172119140625 283 L 10.70172119140625 285 C 10.70172119140625 285 5.70172119140625 285 5.70172119140625 285 L 5.70172119140625 283 Z M 4.87548828125 277.0824890136719 L 6.57855224609375 278.1311950683594 L 3.956787109375 282.388671875 L 2.2537841796875 281.3399963378906 L 4.875518798828125 277.08251953125 Z M 12.74072265625 264.3099060058594 L 14.4437255859375 265.3585815429688 L 11.82199096679688 269.6161499023438 L 10.11898803710938 268.5674438476562 C 10.11898803710938 268.5674438476562 10.73306274414062 267.5702209472656 11.3668212890625 266.5410766601562 L 11.38671875 266.5087585449219 C 11.38720703125 266.5079650878906 11.38772583007812 266.5071105957031 11.38821411132812 266.50634765625 L 12.74072265625 264.3099060058594 Z M 20.60595703125 251.5373687744141 L 22.3089599609375 252.5860443115234 L 19.68722534179688 256.8435974121094 L 17.98422241210938 255.7948608398438 C 17.98422241210938 255.7948608398438 20.60595703125 251.5373687744141 20.60595703125 251.5373687744141 Z M 28.47113037109375 238.7647705078125 L 30.1741943359375 239.8135070800781 L 27.55239868164062 244.0709991455078 L 25.84939575195312 243.0223236083984 L 28.47116088867188 238.7647857666016 Z M 36.33636474609375 225.9922180175781 L 38.03936767578125 227.0409088134766 L 35.41763305664062 231.2984619140625 L 33.71463012695312 230.2497253417969 L 36.33636474609375 225.9922332763672 Z M 44.20159912109375 213.2196350097656 L 45.90460205078125 214.2683715820312 L 43.28286743164062 218.5258636474609 L 41.57986450195312 217.4771728515625 C 41.57986450195312 217.4771728515625 43.51083374023438 214.3414001464844 44.05838012695312 213.4521789550781 L 44.06314086914062 213.4444580078125 C 44.06607055664062 213.4397277832031 44.06900024414062 213.4349517822266 44.07183837890625 213.4303588867188 L 44.09326171875 213.3955688476562 C 44.09371948242188 213.3948364257812 44.09423828125 213.3939819335938 44.09466552734375 213.3932495117188 L 44.09716796875 213.3891906738281 C 44.09716796875 213.3891906738281 44.09719848632812 213.3891448974609 44.09719848632812 213.3891448974609 L 44.20159912109375 213.2196350097656 Z M 52.0667724609375 200.4470825195312 L 53.76980590820312 201.4957733154297 L 51.14804077148438 205.7533264160156 L 49.44503784179688 204.70458984375 L 52.0667724609375 200.4470977783203 Z M 59.9320068359375 187.6744995117188 L 61.635009765625 188.7232360839844 L 59.01327514648438 192.9807281494141 L 57.31027221679688 191.9320373535156 C 57.31027221679688 191.9320373535156 57.5987548828125 191.4635467529297 57.984375 190.8373565673828 L 59.9320068359375 187.6744995117188 Z M 67.7972412109375 174.9019470214844 L 69.50021362304688 175.9506378173828 L 66.87850952148438 180.2081909179688 L 65.17550659179688 179.1595001220703 C 65.17550659179688 179.1595001220703 67.7972412109375 174.9019470214844 67.7972412109375 174.9019470214844 Z M 75.66241455078125 162.1294097900391 L 77.36544799804688 163.1781005859375 L 74.74368286132812 167.4355926513672 L 73.04067993164062 166.3869018554688 L 75.66241455078125 162.1294097900391 Z M 83.52764892578125 149.3568115234375 L 85.23062133789062 150.4055023193359 L 82.60891723632812 154.6630401611328 L 80.90591430664062 153.6143646240234 C 80.90591430664062 153.6143646240234 82.00091552734375 151.8361358642578 82.77560424804688 150.5780944824219 L 82.77713012695312 150.5756225585938 C 82.7784423828125 150.573486328125 82.77960205078125 150.5715789794922 82.78091430664062 150.5694427490234 L 83.52764892578125 149.3568267822266 Z M 91.39285278320312 136.5842742919922 L 93.09585571289062 137.6329498291016 L 90.47415161132812 141.8904571533203 L 88.77114868164062 140.8417663574219 C 88.77114868164062 140.8417663574219 91.39285278320312 136.5842742919922 91.39285278320312 136.5842742919922 Z M 99.25804138183594 123.8116760253906 L 100.9610900878906 124.8604125976562 L 98.33932495117188 129.1179046630859 L 96.63632202148438 128.0692291259766 C 96.63632202148438 128.0692291259766 96.65910339355469 128.0322265625 96.70045471191406 127.9650726318359 L 96.70196533203125 127.9626159667969 C 96.70492553710938 127.9578247070312 96.70796203613281 127.9528961181641 96.71109008789062 127.9477996826172 L 96.71247863769531 127.945556640625 C 96.7158203125 127.9401245117188 96.71923828125 127.9345855712891 96.7227783203125 127.9288330078125 L 96.72433471679688 127.9263000488281 C 96.7257080078125 127.924072265625 96.72705078125 127.921875 96.72845458984375 127.9196014404297 L 96.73016357421875 127.9168243408203 C 96.73088073730469 127.9156646728516 96.73162841796875 127.9144439697266 96.73234558105469 127.9132843017578 L 99.258056640625 123.8116912841797 Z M 107.1232757568359 111.0391387939453 L 108.8262786865234 112.0878143310547 L 106.2045440673828 116.3453674316406 L 104.5015411376953 115.296630859375 C 104.5015411376953 115.296630859375 107.1232757568359 111.0391387939453 107.1232757568359 111.0391387939453 Z M 114.9884948730469 98.26654052734375 L 116.6914978027344 99.31527709960938 L 114.0697784423828 103.5727691650391 L 112.3667297363281 102.5240936279297 L 114.3085784912109 99.37069702148438 C 114.3092803955078 99.36953735351562 114.31005859375 99.3682861328125 114.3107604980469 99.36712646484375 L 114.3348236083984 99.32806396484375 C 114.3362274169922 99.32577514648438 114.3374481201172 99.32379150390625 114.3388519287109 99.32151794433594 L 114.3445434570312 99.31228637695312 C 114.3472747802734 99.30784606933594 114.35009765625 99.30326843261719 114.3528137207031 99.29885864257812 L 114.3549346923828 99.29539489746094 C 114.3625335693359 99.28306579589844 114.3700561523438 99.27085876464844 114.3775634765625 99.2586669921875 L 114.3884582519531 99.240966796875 C 114.3898315429688 99.23873901367188 114.3912506103516 99.23643493652344 114.3926239013672 99.23420715332031 L 114.3943176269531 99.2314453125 C 114.3983459472656 99.22489929199219 114.4023895263672 99.21833801269531 114.4063873291016 99.21185302734375 L 114.4068908691406 99.21102905273438 C 114.7452545166016 98.66156005859375 114.9884948730469 98.26654052734375 114.9884948730469 98.26654052734375 Z M 122.8536834716797 85.49400329589844 L 124.5567321777344 86.54267883300781 L 121.9349517822266 90.80023193359375 L 120.2319488525391 89.75149536132812 L 122.8536987304688 85.49400329589844 Z M 130.7189025878906 72.72140502929688 L 132.4219055175781 73.7701416015625 L 129.8001861572266 78.02763366699219 L 128.0971832275391 76.97895812988281 C 128.0971832275391 76.97895812988281 128.7412567138672 75.93302917480469 129.390869140625 74.87806701660156 L 129.3953247070312 74.87083435058594 C 129.3963775634766 74.869140625 129.3974456787109 74.86740112304688 129.3984832763672 74.86570739746094 L 129.4022064208984 74.85966491699219 C 129.4030914306641 74.85823059082031 129.4039459228516 74.85682678222656 129.4048309326172 74.85539245605469 L 130.7189178466797 72.72142028808594 Z M 138.5841369628906 59.94886779785156 L 140.2871398925781 60.99754333496094 L 137.6654052734375 65.25509643554688 L 135.9623565673828 64.20635986328125 L 137.7145843505859 61.36094665527344 C 137.7149505615234 61.36032104492188 137.7154083251953 61.35960388183594 137.7157897949219 61.35897827148438 L 137.7217254638672 61.34931945800781 C 137.7218017578125 61.34919738769531 137.7220306396484 61.34884643554688 137.7220916748047 61.34872436523438 L 137.7281188964844 61.33895874023438 C 138.2012176513672 60.5706787109375 138.5841369628906 59.94886779785156 138.5841369628906 59.94886779785156 Z M 146.4493255615234 47.17626953125 L 148.1523590087891 48.22500610351562 L 145.5305938720703 52.48249816894531 L 143.8275909423828 51.43382263183594 L 146.4493408203125 47.17628479003906 Z M 154.3145446777344 34.40373229980469 L 156.0175476074219 35.45240783691406 L 153.3958129882812 39.7099609375 L 151.6928253173828 38.66127014160156 C 151.6928253173828 38.66127014160156 153.6961517333984 35.40797424316406 154.2004089355469 34.58908081054688 L 154.2032012939453 34.58454895019531 C 154.2071380615234 34.57815551757812 154.2109527587891 34.57196044921875 154.2147064208984 34.56587219238281 L 154.2153930664062 34.56475830078125 C 154.2173461914062 34.56158447265625 154.21923828125 34.55850219726562 154.2211303710938 34.555419921875 L 154.2215270996094 34.55477905273438 C 154.2228698730469 34.55259704589844 154.2242431640625 34.55036926269531 154.2255706787109 34.54823303222656 L 154.2340240478516 34.53448486328125 C 154.2349090576172 34.53306579589844 154.2357330322266 34.53170776367188 154.2365875244141 34.53031921386719 L 154.3145446777344 34.40373229980469 Z M 162.1797790527344 21.63119506835938 L 163.8827667236328 22.67987060546875 L 161.2610473632812 26.9373779296875 L 159.5579986572266 25.888671875 L 160.6958465576172 24.04092407226562 C 160.6964111328125 24.04000854492188 160.6969757080078 24.03909301757812 160.6975250244141 24.0382080078125 L 160.7022705078125 24.03048706054688 C 160.7039337158203 24.02780151367188 160.7056274414062 24.02505493164062 160.7072906494141 24.0223388671875 L 160.7082977294922 24.02072143554688 C 160.7104339599609 24.01724243164062 160.7124633789062 24.01394653320312 160.7146148681641 24.01046752929688 L 160.7163696289062 24.00759887695312 C 161.4185180664062 22.86740112304688 162.1797790527344 21.63119506835938 162.1797790527344 21.63119506835938 Z M 170.0449523925781 8.85858154296875 L 171.7480010986328 9.90728759765625 L 169.126220703125 14.16482543945312 L 167.4232330322266 13.11614990234375 C 167.4232330322266 13.11614990234375 167.7321319580078 12.614501953125 168.1377716064453 11.95574951171875 L 168.1417083740234 11.9493408203125 C 168.1454772949219 11.9432373046875 168.1492309570312 11.93716430664062 168.1529998779297 11.9310302734375 L 168.1543426513672 11.9288330078125 C 168.1581115722656 11.9227294921875 168.1620178222656 11.9163818359375 168.1658172607422 11.91021728515625 L 168.1693725585938 11.90444946289062 C 168.1706085205078 11.90243530273438 168.171875 11.90036010742188 168.1731109619141 11.89834594726562 L 168.1779479980469 11.89053344726562 C 168.1779479980469 11.89053344726562 168.1780548095703 11.89031982421875 168.1780548095703 11.89031982421875 L 168.1842193603516 11.88034057617188 C 168.1848754882812 11.8792724609375 168.1854858398438 11.87826538085938 168.1861419677734 11.877197265625 L 170.0449676513672 8.858612060546875 Z M 175.5 0 L 175.9699859619141 0.763214111328125 C 175.9732666015625 0.7685546875 175.9765472412109 0.773895263671875 175.9798583984375 0.77923583984375 L 175.9823303222656 0.78326416015625 C 175.9836730957031 0.78546142578125 175.9849853515625 0.78759765625 175.986328125 0.789764404296875 L 175.9884490966797 0.793212890625 C 175.9891510009766 0.794342041015625 175.9898834228516 0.7955322265625 175.9906005859375 0.79669189453125 L 175.9947052001953 0.803375244140625 C 175.9958038330078 0.805145263671875 175.9967651367188 0.806732177734375 175.9978637695312 0.808502197265625 L 176.011474609375 0.830596923828125 C 176.0133514404297 0.833648681640625 176.0153503417969 0.836883544921875 176.0172424316406 0.8399658203125 L 176.0184783935547 0.84197998046875 C 176.0220642089844 0.847808837890625 176.0258026123047 0.8538818359375 176.0294189453125 0.8597412109375 L 176.0314788818359 0.863067626953125 C 176.0350341796875 0.868865966796875 176.0387420654297 0.8748779296875 176.0423126220703 0.88067626953125 L 176.0441284179688 0.88360595703125 C 176.0457153320312 0.886199951171875 176.04736328125 0.888885498046875 176.0489654541016 0.8914794921875 L 176.0506896972656 0.894287109375 C 176.0517578125 0.89599609375 176.0526580810547 0.897491455078125 176.0537261962891 0.89923095703125 L 176.0581665039062 0.90643310546875 C 176.0615081787109 0.911865234375 176.0649108886719 0.9173583984375 176.0682678222656 0.922821044921875 L 176.0691223144531 0.924224853515625 C 176.0726165771484 0.929901123046875 176.076171875 0.9356689453125 176.0796966552734 0.941375732421875 L 176.0846557617188 0.949432373046875 C 176.0850677490234 0.950103759765625 176.0854187011719 0.95068359375 176.0858306884766 0.95135498046875 L 176.12890625 1.02130126953125 C 176.13037109375 1.023681640625 176.1317901611328 1.025970458984375 176.1332550048828 1.028350830078125 L 176.1357727050781 1.032440185546875 C 176.1395416259766 1.03857421875 176.1432495117188 1.044586181640625 176.1470336914062 1.050750732421875 L 176.1487731933594 1.053558349609375 C 176.1508178710938 1.056884765625 176.1526794433594 1.059906005859375 176.1547241210938 1.063232421875 L 176.155029296875 1.063720703125 C 176.1563568115234 1.065887451171875 176.1576538085938 1.0679931640625 176.1589965820312 1.070159912109375 L 176.1642303466797 1.078643798828125 C 176.1649322509766 1.079803466796875 176.1657257080078 1.081085205078125 176.1664276123047 1.082244873046875 L 176.1701812744141 1.08831787109375 C 176.17138671875 1.09027099609375 176.1725921630859 1.092254638671875 176.1737976074219 1.094207763671875 L 176.1760406494141 1.09783935546875 C 176.1778869628906 1.100860595703125 176.1796875 1.103759765625 176.1815490722656 1.106781005859375 L 176.1828002929688 1.10882568359375 C 176.1840057373047 1.11077880859375 176.1852111816406 1.11273193359375 176.1864166259766 1.114715576171875 L 176.1915435791016 1.123016357421875 C 176.1920471191406 1.12384033203125 176.1925506591797 1.1246337890625 176.1930541992188 1.125457763671875 L 176.2477264404297 1.214263916015625 C 176.247802734375 1.214385986328125 176.2479858398438 1.214691162109375 176.2480621337891 1.214813232421875 L 176.2545013427734 1.225250244140625 C 176.2545776367188 1.225372314453125 176.2547912597656 1.225738525390625 176.2548675537109 1.225860595703125 L 176.2611236572266 1.235992431640625 C 176.2615509033203 1.236724853515625 176.2619476318359 1.23736572265625 176.2623901367188 1.238067626953125 L 178.1217193603516 4.25750732421875 L 176.4187316894531 5.30621337890625 L 174.3256072998047 1.907135009765625 L 175.5 0 Z" stroke="none" fill="#fff"/>
  </g>
</svg>
